**ABCDEFGHIJKLMNOPQRSTUVWXYZabcdefghijklmnopqrstuvwxyz**************************
**PARASOLID !"#$%&'()*+,-./:;<=>?@[\]^_`{|}~0123456789**************************
**PART1;
MC=AMD64;
MC_MODEL=Intel64 Family 6 Model 158 Stepping 10, GenuineIntel;
MC_ID=unknown;
OS=Windows_NT;
OS_RELEASE=unknown;
FRU=Parasolid Version 32.1, build 255,  1- 1-2021;
APPL=SOLIDWORKS 2021-2021301;
SITE=;
USER=unknown;
FORMAT=text;
GUISE=transmit;
KEY=Corkscrew Pin;
FILE=Corkscrew Pin.x_t;
DATE=Mon Oct  3 09:26:34 2022;
**PART2;
SCH=SCH_3201255_32001;
USFLD_SIZE=0;
**PART3;
**END_OF_HEADER*****************************************************************
T51 : TRANSMIT FILE created by modeller version 320125523 SCH_3201255_32001_1300
6229 0 12 34 CCCCCCI4 mesh1006 0 I8 polyline1008 0 CCCCCCCDI5 owner1040 0 CCCCCC
I13 boundary_mesh1006 0 I17 boundary_polyline1008 0 CCCA16 index_map_offset0 0 1
 dA9 index_map82 0 A17 node_id_index_map82 0 A20 schema_embedding_map82 0 A5 chi
ld12 0 A14 lowest_node_id0 0 1 dA16 mesh_offset_data206 0 Z1 1246 2 3 0 0 0 0 0
 0 1e3 1e-8 0 4 0 1 0 1 1 5 6 7 0 0 0 8 9 0 0 0 0 0 0 0 0 81 255 2 2 1220 10 1 1
1 0 0 0 0 12 70 11 CI9 list_type0 0 1 uI10 notransmit0 0 1 lCCCDCCDI12 finger_in
dex0 0 1 dI12 finger_block1012 0 CZ3 0 4 T1 0 0 10 20 1 13 13 13 255 5 41 0 1 0
 14 0 0 15 0 54 255 6 272 0 16 17 0 0 +0 .00537298334620742 0 0 -1 0 .00275 25e-
5 0 0 -1 31 255 7 241 0 9 18 0 0 -0 .00557682457495518 0 0 -1 0 0 0 -1 .00289473
6842105265 19 8 CCCCCCCA5 owner12 0 Z8 45 0 1 15 0 19 V0 16 255 9 238 20 ?21 0 2
2 7 0 0 1 81 3 20 1221 23 9 0 0 0 24 25 0 0 17 255 21 0 26 21 21 0 27 9 0 0 +16
 22 231 24 ?28 9 29 18 0 0 1 81 3 24 1222 23 22 0 0 20 30 31 0 0 17 28 0 32 28 2
8 0 33 22 0 0 +16 29 224 30 ?34 22 35 36 0 0 1 31 18 234 0 22 36 7 0 +0 .0053729
8334620742 0 0 -1 0 0 0 -1 .003 31 36 227 0 29 37 18 0 +0 -.00537298334620742 0
 0 1 0 0 0 1 .003 31 37 220 0 35 38 36 0 -0 -.00557682457495518 0 0 1 0 0 0 1 .0
02894736842105265 16 35 217 39 ?40 29 41 37 0 0 1 31 38 85 0 41 42 37 0 +0 .005
 0 0 -1 0 0 0 -1 .003 16 41 54 43 ?44 35 45 38 0 0 1 31 42 84 0 45 46 38 0 +0 .0
05 0 0 -1 0 0 0 -1 .0025 16 45 49 47 ?48 41 49 42 0 0 1 31 46 176 0 49 50 42 0 +
0 -.005 0 0 -1 0 0 0 -1 .003 16 49 147 51 ?52 45 53 46 0 0 1 31 50 177 0 53 0 46
 0 +0 -.005 0 0 -1 0 0 0 -1 .0025 16 53 148 54 ?55 49 0 50 0 0 1 81 3 54 1228 23
 53 0 0 51 0 56 0 0 17 55 0 57 55 55 0 58 53 0 0 +15 255 57 162 0 55 59 60 17 58
 0 61 58 58 0 55 53 0 0 -15 61 167 0 58 62 0 14 255 62 52 63 ?64 65 66 5 67 -0 0
 64 65 19 81 3 63 1230 68 62 69 0 0 70 71 0 0 14 64 153 70 ?72 62 73 5 74 -0 0 7
2 62 19 14 65 57 75 ?62 76 77 5 78 -0 0 62 76 19 15 66 51 0 48 62 61 51 255 67 7
8 0 62 79 78 0 -0 0 0 0 -1 0 .0025 0 0 -1 13 19 44 0 0 0 0 0 0 8 14 14 14 67 80
 ?76 0 26 5 81 -0 0 76 0 19 81 3 80 1236 68 14 82 0 75 83 84 0 0 14 76 62 83 ?65
 14 32 5 85 -0 0 65 14 19 15 26 239 0 21 14 0 53 255 81 138 0 14 85 74 0 -0 .001
5 0 .005 0 0 1 1 0 0 51 85 80 0 76 78 81 0 -0 0 0 0 -1 0 .003 0 0 -1 53 74 192 0
 64 81 17 0 -0 -.0015 0 .005 0 0 1 1 0 0 54 17 259 0 86 74 6 0 +0 -.005372983346
20742 0 0 1 0 .00275 25e-5 0 0 1 14 86 252 87 ?16 59 88 5 17 +0 0 16 59 19 81 3
 87 1240 68 86 89 0 83 90 91 0 0 14 16 265 90 ?0 86 92 5 6 +0 0 0 86 19 14 59 16
0 93 ?86 72 57 5 94 -0 0 86 72 19 15 88 253 0 95 86 96 17 95 0 88 95 95 0 34 29
 0 0 -15 96 254 0 97 86 0 17 97 0 96 97 97 0 40 35 0 0 -17 40 0 73 40 40 0 97 35
 0 0 +15 73 218 0 40 64 0 17 34 0 98 34 34 0 95 29 0 0 +15 98 225 0 34 72 99 14
 72 156 100 ?59 64 98 5 79 -0 0 59 64 19 15 99 158 0 52 72 0 17 52 0 99 52 52 0
 101 49 0 0 +17 101 0 60 101 101 0 52 49 0 0 -15 60 163 0 101 59 0 81 3 100 1246
 68 72 102 0 93 0 103 0 0 51 79 172 0 72 94 67 0 -0 0 0 0 1 0 .003 0 0 -1 50 255
 94 173 0 59 0 79 0 +-.003 -.005 0 0 -1 0 0 0 1 80 255 3 68 104 105 9000 0 0 0 0
 3 5 0 0 0 FFFFTFFFFFFFFF1 1 1 81 1 102 1245 106 72 107 100 108 0 109 81 3 93 12
44 68 59 108 0 90 100 110 0 0 82 255 6 103 6 -1093101678 30950809 0 389907357 87
7046402 81 1 108 1243 106 59 111 93 112 102 113 81 3 90 1242 68 16 112 0 87 93 1
14 0 0 82 6 110 7 -1093101678 30950809 0 389907357 877046402 81 1 112 1241 106 1
6 115 90 89 108 116 82 6 114 9 -1093101678 30950809 0 389907357 877046402 80 1 1
06 117 118 9000 1 1 1 1 1 1 1 1 0 FFFFTFTFFFFFFF1 81 1 115 1182 119 16 0 112 120
 0 121 81 1 89 1239 106 86 120 87 122 112 123 82 1 116 -543293331 81 1 120 1181
 119 86 0 89 111 115 124 81 1 122 1237 106 76 125 83 82 89 126 82 1 123 -5445385
15 81 1 125 1175 119 76 0 122 127 128 129 81 3 83 1238 68 76 122 0 80 87 130 0 0
 81 1 82 1235 106 14 127 80 131 122 132 82 1 126 -1559232403 81 1 127 1174 119 1
4 0 82 0 125 133 81 1 131 1233 106 65 128 75 134 82 135 82 1 132 -1558642579 81
 1 128 1176 119 65 0 131 125 136 137 81 3 75 1234 68 65 131 0 70 80 138 0 0 81 1
 134 1231 106 64 139 70 69 131 140 82 1 135 -1559822233 81 1 139 1178 119 64 0 1
34 136 107 141 81 3 70 1232 68 64 134 0 63 75 142 0 0 81 1 69 1229 106 62 136 63
 0 134 143 82 1 140 -984416147 81 1 136 1177 119 62 0 69 128 139 144 82 1 143 -1
560412053 80 1 119 0 145 8001 0 0 0 0 3 5 0 0 0 FFFFTFTFFFFFFF2 83 255 3 144 .77
6470588235294 .756862745098039 .737254901960784 79 255 15 145 SDL/TYSA_COLOUR82
 6 142 5 -1093101678 30950809 0 389907357 877046402 81 1 107 1179 119 72 0 102 1
39 111 146 83 3 141 .776470588235294 .756862745098039 .737254901960784 81 1 111
 1180 119 59 0 108 107 120 147 83 3 146 .776470588235294 .756862745098039 .73725
4901960784 83 3 147 .776470588235294 .756862745098039 .737254901960784 82 6 138
 3 -1093101678 30950809 0 389907357 877046402 83 3 137 .776470588235294 .7568627
45098039 .737254901960784 83 3 133 .776470588235294 .756862745098039 .7372549019
60784 82 6 130 2 -1093101678 30950809 0 389907357 877046402 83 3 129 .7764705882
35294 .756862745098039 .737254901960784 83 3 124 .776470588235294 .7568627450980
39 .737254901960784 83 3 121 .776470588235294 .756862745098039 .737254901960784
 79 14 118 SWEntUnchanged82 1 113 -985595797 82 1 109 -985005971 79 18 105 DOWNS
TREAM_FACE_ID15 92 266 0 27 16 148 17 27 0 92 27 27 0 21 9 0 0 -15 148 267 0 33
 16 0 17 33 0 148 33 33 0 28 22 0 0 -82 6 91 8 -1093101678 30950809 0 389907357
 877046402 50 78 79 0 65 67 85 0 +-.003 .005 0 0 1 0 0 0 1 15 32 232 0 28 76 149
 15 149 109 0 150 76 0 17 150 0 149 150 150 0 44 41 0 0 -17 44 0 151 44 44 0 150
 41 0 0 +15 151 56 0 44 65 0 82 6 84 1 -1093101678 30950809 0 389907357 87704640
2 17 48 0 66 48 48 0 152 45 0 0 +17 152 0 77 152 152 0 48 45 0 0 -15 77 108 0 15
2 65 151 82 6 71 4 -1093101678 30950809 0 389907357 877046402 80 3 23 68 153 900
0 0 0 0 0 3 5 0 0 0 FFFFFFTFFFFFFF1 1 1 81 3 51 1227 23 49 0 0 47 54 154 0 0 82
 6 56 17 -1093101678 30950809 0 389907357 877046402 81 3 47 1226 23 45 0 0 43 51
 155 0 0 82 6 154 16 -1093101678 30950809 0 389907357 877046402 81 3 43 1225 23
 41 0 0 39 47 156 0 0 82 6 155 15 -1093101678 30950809 0 389907357 877046402 81
 3 39 1224 23 35 0 0 30 43 157 0 0 82 6 156 14 -1093101678 30950809 0 389907357
 877046402 81 3 30 1223 23 29 0 0 24 39 158 0 0 82 6 157 13 -1093101678 30950809
 0 389907357 877046402 82 6 158 12 -1093101678 30950809 0 389907357 877046402 79
 18 153 DOWNSTREAM_EDGE_ID82 6 31 11 -1093101678 30950809 0 389907357 877046402
 82 6 25 10 -1093101678 30950809 0 389907357 877046402 19 15 40 0 1 0 8 5 S0 74
 4 CI16 index_map_offset0 0 1 dCCZ20 13 10 0 0 102 159 160 161 100 54 162 11 115
 2 0 0 0 0 0 0 0 0 0 0 81 2 159 180 163 1 0 160 0 0 0 164 81 2 160 195 165 1 159
 161 0 0 0 166 81 2 161 206 167 1 160 162 0 0 0 168 81 2 162 1123 169 1 161 11 0
 0 0 0 81 2 11 1140 170 1 162 2 0 0 171 0 80 2 170 172 173 8004 0 0 0 0 3 5 0 0
 0 FFTFFFFFFFFFFF2 3 83 1 171 1 79 16 173 SDL/TYSA_DENSITY80 2 169 174 175 9000
 0 0 0 0 3 5 0 0 0 FFTFFFFFFFFFFF9 1 79 16 175 BODY_RECIPE_200180 2 167 176 177
 9000 0 0 0 0 3 5 0 0 0 FFTFFFFFFFFFFF9 1 82 1 168 1 79 24 177 BODY_IN_LIGHTWEIG
HT_PERM80 2 165 178 179 9000 0 0 0 0 3 5 0 0 0 FFTFFFFFFFFFFF9 1 82 1 166 40 79
 30 179 LAST_BODY_MODIFYING_FEATURE_ID80 2 163 180 181 9000 0 0 0 0 3 5 0 0 0 FF
TFFFFFFFFFFF9 1 82 1 164 111 79 19 181 ENT_TIME_STAMP_200180 2 10 182 183 9000 0
 0 0 0 3 5 0 0 0 FFTFFFFFFFFFFF9 1 82 1 12 102 79 12 183 ATOM_ID_20011 0 
