**ABCDEFGHIJKLMNOPQRSTUVWXYZabcdefghijklmnopqrstuvwxyz**************************
**PARASOLID !"#$%&'()*+,-./:;<=>?@[\]^_`{|}~0123456789**************************
**PART1;
MC=AMD64;
MC_MODEL=Intel64 Family 6 Model 142 Stepping 10, GenuineIntel;
MC_ID=unknown;
OS=Windows_NT;
OS_RELEASE=unknown;
FRU=Parasolid Version 31.0, build 203,  8- 8-2018;
APPL=SOLIDWORKS 2019-2018263;
SITE=;
USER=unknown;
FORMAT=text;
GUISE=transmit;
KEY=Part1;
FILE=Part1.x_t;
DATE=Thu Mar  4 18:32:03 2021;
**PART2;
SCH=SCH_3100203_31001;
USFLD_SIZE=0;
**PART3;
**END_OF_HEADER*****************************************************************
T51 : TRANSMIT FILE created by modeller version 310020323 SCH_3100203_31001_1300
6215 0 12 34 CCCCCCI4 mesh1006 0 I8 polyline1008 0 CCCCCCCDI5 owner1040 0 CCCCCC
I13 boundary_mesh1006 0 I17 boundary_polyline1008 0 CCCA16 index_map_offset0 0 1
 dA9 index_map82 0 A17 node_id_index_map82 0 A20 schema_embedding_map82 0 A5 chi
ld12 0 A14 lowest_node_id0 0 1 dA16 mesh_offset_data206 0 Z1 77 2 3 0 0 0 0 0 0
 1e3 1e-8 0 4 0 1 0 3 1 5 6 7 8 0 0 9 10 11 0 0 0 0 0 0 0 81 255 2 2 76 12 1 13
 0 0 0 0 14 70 11 CI9 list_type0 0 1 uI10 notransmit0 0 1 lCCCDCCDI12 finger_ind
ex0 0 1 dI12 finger_block1012 0 CZ3 0 4 T1 0 0 9 20 1 15 15 13 255 5 33 0 1 0 16
 0 0 9 16 50 255 6 2 0 16 0 0 0 +0 0 0 0 0 -1 -1 0 0 30 255 7 18 0 10 17 0 0 +-.
05 -.05 0 1 0 0 29 255 8 31 0 11 18 0 .05 -.05 0 19 8 CCCCCCCA5 owner12 0 Z9 32
 0 1 0 0 5 V0 16 255 10 17 0 ?19 0 20 7 0 0 1 18 255 11 29 0 21 0 22 8 ?1 17 255
 21 0 0 0 0 11 23 24 0 19 -18 22 26 0 25 11 26 18 ?1 17 25 0 27 19 28 22 29 20 0
 30 +18 26 23 0 28 22 31 32 ?1 29 18 28 0 22 32 8 -.05 -.05 0 29 32 25 0 26 33 1
8 -.05 .05 0 29 33 22 0 31 0 32 .05 .05 0 18 31 20 0 23 26 0 33 ?1 17 23 0 27 28
 19 31 21 24 0 34 +15 255 27 4 0 23 16 0 17 28 0 27 25 23 26 34 35 0 29 +17 19 0
 27 23 25 11 30 10 0 0 +16 24 8 0 ?23 35 36 37 0 0 1 17 34 0 0 0 0 31 28 35 0 0
 -16 35 11 0 ?28 20 24 38 0 0 1 16 20 14 0 ?25 10 35 17 0 0 1 30 38 12 0 35 37 1
7 0 +-.05 .05 0 -1 0 0 30 37 9 0 24 39 38 0 +.05 -.05 0 0 1 0 30 17 15 0 20 38 7
 0 +-.05 -.05 0 0 -1 0 31 255 39 6 0 36 0 37 0 +-208166817117217e-31 69388939039
0723e-32 0 0 0 1 1 0 0 .025 16 36 5 0 ?40 24 0 39 0 0 1 17 40 0 0 0 0 0 41 36 0
 0 +17 41 0 42 41 41 0 40 36 0 0 -15 42 3 0 41 16 27 14 255 16 1 43 ?0 0 42 5 6
 -0 0 0 0 5 81 1 43 77 44 16 45 0 0 0 46 80 255 1 44 47 48 9000 1 1 1 1 1 1 1 1
 0 FFFFTFTFFFFFFF1 81 1 45 67 49 16 0 43 0 0 50 82 255 1 46 1137967214 80 1 49 0
 51 8001 0 0 0 0 3 5 0 0 0 FFFFTFTFFFFFFF2 83 255 3 50 .792156862745098 .8196078
43137255 .933333333333333 79 255 15 51 SDL/TYSA_COLOUR79 14 48 SWEntUnchanged17
 30 0 0 0 0 22 19 10 0 0 -17 29 0 0 0 0 26 25 20 0 0 -74 4 CI16 index_map_offset
0 0 1 dCCZ20 15 9 0 0 52 53 54 55 56 13 45 2 43 0 0 0 0 0 0 0 0 0 0 0 81 2 52 41
 57 1 0 53 0 0 0 58 81 2 53 44 59 1 52 54 0 0 0 60 81 1 54 46 61 1 53 55 0 0 62
 81 2 55 51 63 1 54 56 0 0 64 0 81 2 56 60 65 1 55 13 0 0 0 66 81 2 13 64 67 1 5
6 2 0 0 0 0 80 2 67 68 69 9000 0 0 0 0 3 5 0 0 0 FFTFFFFFFFFFFF9 1 79 16 69 BODY
_RECIPE_200180 2 65 70 71 9000 0 0 0 0 3 5 0 0 0 FFTFFFFFFFFFFF9 1 82 1 66 1 79
 24 71 BODY_IN_LIGHTWEIGHT_PERM80 2 63 72 73 8004 0 0 0 0 3 5 0 0 0 FFTFFFFFFFFF
FF2 3 83 1 64 1 79 16 73 SDL/TYSA_DENSITY80 1 61 74 75 9000 1 1 1 1 1 1 1 1 0 FF
TFFFFFFFFFFF1 82 1 62 17362 79 10 75 BODY_MATCH80 2 59 76 77 9000 0 0 0 0 3 5 0
 0 0 FFTFFFFFFFFFFF9 1 82 1 60 40 79 30 77 LAST_BODY_MODIFYING_FEATURE_ID80 2 57
 78 79 9000 0 0 0 0 3 5 0 0 0 FFTFFFFFFFFFFF9 1 82 1 58 105 79 19 79 ENT_TIME_ST
AMP_200180 2 12 80 81 9000 0 0 0 0 3 5 0 0 0 FFTFFFFFFFFFFF9 1 82 1 14 102 79 12
 81 ATOM_ID_20011 0 
