**ABCDEFGHIJKLMNOPQRSTUVWXYZabcdefghijklmnopqrstuvwxyz**************************
**PARASOLID !"#$%&'()*+,-./:;<=>?@[\]^_`{|}~0123456789**************************
**PART1;
MC=AMD64;
MC_MODEL=Intel64 Family 6 Model 142 Stepping 10, GenuineIntel;
MC_ID=unknown;
OS=Windows_NT;
OS_RELEASE=unknown;
FRU=Parasolid Version 31.0, build 203,  8- 8-2018;
APPL=SOLIDWORKS 2019-2018263;
SITE=;
USER=unknown;
FORMAT=text;
GUISE=transmit;
KEY=Part1;
FILE=Part1.x_t;
DATE=Mon Apr  5 21:31:57 2021;
**PART2;
SCH=SCH_3100203_31001;
USFLD_SIZE=0;
**PART3;
**END_OF_HEADER*****************************************************************
T51 : TRANSMIT FILE created by modeller version 310020323 SCH_3100203_31001_1300
6215 0 12 34 CCCCCCI4 mesh1006 0 I8 polyline1008 0 CCCCCCCDI5 owner1040 0 CCCCCC
I13 boundary_mesh1006 0 I17 boundary_polyline1008 0 CCCA16 index_map_offset0 0 1
 dA9 index_map82 0 A17 node_id_index_map82 0 A20 schema_embedding_map82 0 A5 chi
ld12 0 A14 lowest_node_id0 0 1 dA16 mesh_offset_data206 0 Z1 728 2 3 0 0 0 0 0 0
 1e3 1e-8 0 4 0 1 0 1 1 5 6 7 0 0 0 8 9 0 0 0 0 0 0 0 0 81 255 2 2 725 10 1 11 0
 0 0 0 12 70 11 CI9 list_type0 0 1 uI10 notransmit0 0 1 lCCCDCCDI12 finger_index
0 0 1 dI12 finger_block1012 0 CZ3 0 4 T1 0 0 9 20 1 13 13 13 255 5 29 0 1 0 14 0
 0 15 0 51 255 6 28 0 14 16 0 0 -0 .5 0 0 -1 0 .2 0 0 -1 31 255 7 23 0 17 18 0 0
 +0 0 0 0 1 0 0 0 1 .2 19 8 CCCCCCCA5 owner12 0 Z8 7 0 1 15 0 19 V0 16 255 9 4 0
 ?20 0 17 18 0 0 1 17 255 20 0 21 20 20 0 22 9 0 0 +16 17 18 0 ?23 9 0 7 0 0 1 3
1 18 5 0 9 0 7 0 +0 .5 0 0 1 0 0 0 1 .2 17 23 0 24 23 23 0 25 17 0 0 +15 255 24
 26 0 23 14 0 17 25 0 26 25 25 0 23 17 0 0 -15 26 17 0 25 27 0 14 255 27 16 28 ?
0 29 26 5 16 -0 0 0 29 19 81 1 28 726 30 27 31 0 0 32 33 14 29 1 32 ?27 14 21 5
 34 +0 0 27 14 19 50 255 16 22 0 27 34 6 0 +0 0 0 0 1 0 0 0 1 13 19 8 0 0 0 0 0
 0 8 14 14 14 25 35 ?29 0 36 5 6 -0 0 29 0 19 81 1 35 728 30 14 37 0 32 0 38 15
 36 24 0 22 14 24 17 22 0 36 22 22 0 20 9 0 0 -80 255 1 30 39 40 9000 1 1 1 1 1
 1 1 1 0 FFFFTFTFFFFFFF1 81 1 37 715 41 14 0 35 0 42 43 81 1 32 727 30 29 42 0 2
8 35 44 82 255 1 38 114294887 81 1 42 716 41 29 0 32 37 31 45 82 1 44 112328807
 80 1 41 0 46 8001 0 0 0 0 3 5 0 0 0 FFFFTFTFFFFFFF2 81 1 31 717 41 27 0 28 42 0
 47 83 255 3 45 .792156862745098 .819607843137255 .933333333333333 83 3 47 .7921
56862745098 .819607843137255 .933333333333333 79 255 15 46 SDL/TYSA_COLOUR83 3 4
3 .792156862745098 .819607843137255 .933333333333333 79 14 40 SWEntUnchanged50 3
4 2 0 29 0 16 0 +0 .5 0 0 1 0 0 0 1 15 21 3 0 20 29 0 82 1 33 114032743 19 15 30
 0 1 0 8 5 S0 74 4 CI16 index_map_offset0 0 1 dCCZ20 13 9 0 0 48 49 35 50 51 52
 11 31 2 0 0 0 0 0 0 0 0 0 0 0 81 2 48 42 53 1 0 49 0 0 0 54 81 2 49 46 55 1 48
 50 0 0 0 56 81 1 50 50 57 1 49 51 0 0 58 81 2 51 56 59 1 50 52 0 0 60 0 81 2 52
 709 61 1 51 11 0 0 0 62 81 2 11 712 63 1 52 2 0 0 0 0 80 2 63 64 65 9000 0 0 0
 0 3 5 0 0 0 FFTFFFFFFFFFFF9 1 79 16 65 BODY_RECIPE_200180 2 61 66 67 9000 0 0 0
 0 3 5 0 0 0 FFTFFFFFFFFFFF9 1 82 1 62 1 79 24 67 BODY_IN_LIGHTWEIGHT_PERM80 2 5
9 68 69 8004 0 0 0 0 3 5 0 0 0 FFTFFFFFFFFFFF2 3 83 1 60 1 79 16 69 SDL/TYSA_DEN
SITY80 1 57 70 71 9000 1 1 1 1 1 1 1 1 0 FFTFFFFFFFFFFF1 82 1 58 1712 79 10 71 B
ODY_MATCH80 2 55 72 73 9000 0 0 0 0 3 5 0 0 0 FFTFFFFFFFFFFF9 1 82 1 56 34 79 30
 73 LAST_BODY_MODIFYING_FEATURE_ID80 2 53 74 75 9000 0 0 0 0 3 5 0 0 0 FFTFFFFFF
FFFFF9 1 82 1 54 103 79 19 75 ENT_TIME_STAMP_200180 2 10 76 77 9000 0 0 0 0 3 5
 0 0 0 FFTFFFFFFFFFFF9 1 82 1 12 101 79 12 77 ATOM_ID_20011 0 
